<svg width="11" height="18" viewBox="0 0 11 18" fill="none" xmlns="http://www.w3.org/2000/svg">
<path d="M1.41197 0.563792C1.17106 0.336265 0.791319 0.347115 0.563792 0.588026C0.336265 0.828937 0.347115 1.20868 0.588026 1.43621L1.41197 0.563792ZM9.47059 9L9.88256 9.43621C10.0026 9.32286 10.0706 9.16508 10.0706 9C10.0706 8.83492 10.0026 8.67714 9.88256 8.56379L9.47059 9ZM0.588026 16.5638C0.347115 16.7913 0.336265 17.1711 0.563792 17.412C0.791319 17.6529 1.17106 17.6637 1.41197 17.4362L0.588026 16.5638ZM0.588026 1.43621L9.05861 9.43621L9.88256 8.56379L1.41197 0.563792L0.588026 1.43621ZM9.05861 8.56379L4.82332 12.5638L5.64727 13.4362L9.88256 9.43621L9.05861 8.56379ZM4.82332 12.5638L0.588026 16.5638L1.41197 17.4362L5.64727 13.4362L4.82332 12.5638Z" fill="#8CDDFF"/>
</svg>
