<svg width="802" height="1588" viewBox="0 0 802 1588" fill="none" xmlns="http://www.w3.org/2000/svg">
<path d="M781.582 1095.17C789.799 1003.17 659.814 916.091 668.5 824.5C675.937 746.089 803.162 697.723 801 614C799.025 537.511 680.001 475.694 687 399.5C694.165 321.498 802.449 257.817 801 179.5C799.634 105.641 668.5 0 668.5 0H0.713379V1563.54C49.4992 1642.86 138.797 1466.33 228.281 1492.17C286.248 1508.91 292.819 1571.45 351.546 1585.29C434.186 1604.75 469.422 1513.37 554.014 1506.11C632.085 1499.41 682.182 1578.39 751.462 1541.79C858.128 1485.45 665.449 1353.03 699.59 1237.35C717.734 1175.88 775.88 1159.01 781.582 1095.17Z" fill="url(#paint0_linear_213_221)"/>
<defs>
<linearGradient id="paint0_linear_213_221" x1="1.00003" y1="957" x2="1104.5" y2="954" gradientUnits="userSpaceOnUse">
<stop stop-color="#8CDDFF"/>
<stop offset="1" stop-color="#8CDDFF" stop-opacity="0.4"/>
</linearGradient>
</defs>
</svg>
