<svg width="667" height="546" viewBox="0 0 667 546" fill="none" xmlns="http://www.w3.org/2000/svg">
<path fill-rule="evenodd" clip-rule="evenodd" d="M318.911 124.073C312.004 128.194 297.213 146.689 290.661 159.467C286.21 168.149 282.266 178.952 279.535 190.057C277.714 197.628 277.714 229.833 279.636 238.01C286.008 266.378 294.807 281.925 323.127 315.644C330.207 324.024 337.792 333.614 340.119 336.946C354.784 358.651 360.954 383.89 358.83 413.672C358.589 417.007 358.469 419.335 358.065 421.611C356.941 427.947 353.622 433.894 339.411 460.111C318.677 498.474 308.057 520.179 301.483 537.745C300.067 541.581 299.055 544.913 299.258 545.115C299.46 545.317 357.11 545.317 427.303 545.216L455.307 545.149L454.783 536.693C453.44 516.501 442.789 483.265 428.556 454.942C418.352 434.661 388.903 393.74 371.806 376.05C360.259 364.167 358.111 361.04 353.457 348.889C351.667 344.243 348.623 337.363 346.743 333.7C344.864 329.947 342.447 323.693 341.462 319.673C337.524 304.127 332.153 267.852 332.869 262.045C333.854 255.076 336.092 180.83 335.555 175.469C334.838 168.589 332.153 155.455 330.094 149.112C328.617 144.623 323.311 132.906 318.911 124.073Z" fill="#042340" fill-opacity="0.4"/>
<path fill-rule="evenodd" clip-rule="evenodd" d="M143.106 68.254C155.369 62.5359 179.716 55.4777 192.337 53.8694C195.291 53.512 203.616 53.3333 210.776 53.512C221.16 53.78 225.904 54.4055 232.975 56.1924C253.384 61.2851 270.301 70.2196 287.308 84.783C296.617 92.7347 309.507 107.388 314.43 115.607C315.592 117.574 317.182 120.601 318.911 124.073C312.004 128.194 297.213 146.689 290.661 159.467C286.21 168.15 282.266 178.952 279.535 190.057C277.714 197.628 277.714 229.833 279.636 238.01C286.008 266.379 294.807 281.926 323.127 315.645C330.207 324.024 337.792 333.615 340.119 336.946C354.784 358.651 360.954 383.89 358.83 413.672C358.589 417.008 358.469 419.335 358.065 421.611C356.941 427.948 353.622 433.894 339.411 460.111C318.677 498.474 308.057 520.179 301.483 537.745C300.067 541.581 299.055 544.913 299.258 545.115C299.46 545.317 357.111 545.317 427.303 545.216L455.307 545.149L455.32 545.36H317.294H179.179L179.806 542.858C181.417 535.174 195.828 504.976 206.122 487.464C209.613 481.388 218.206 462.805 220.533 456.014C228.321 433.588 225.814 411.967 213.641 395.527C201.557 379.266 194.486 372.923 188.399 372.923C185.087 372.923 182.939 373.995 174.614 379.534C167.99 383.912 163.515 385.61 153.132 387.218C145.792 388.469 136.661 387.397 131.738 384.895C127.621 382.751 124.13 375.514 123.324 367.651C122.25 356.215 119.744 352.552 112.136 351.39C106.854 350.586 105.064 349.157 102.826 344.421C101.394 341.205 101.394 340.758 102.737 338.167C103.543 336.648 104.617 335.398 105.064 335.398C105.601 335.398 105.959 334.772 105.959 334.057C105.959 333.075 105.333 332.807 103.722 333.253C102.468 333.521 100.32 333.343 98.8879 332.717C95.0391 331.198 94.0544 328.161 94.7705 319.762C95.576 309.934 84.1187 309.487 84.1187 309.487C84.1187 309.487 72.6967 310.13 68.3532 305.505C64.1782 301.06 66.4396 296.29 68.9679 290.957C70.315 288.115 71.7379 285.114 72.3033 281.917C72.7531 279.373 73.2987 277.333 73.8163 275.397C74.7308 271.978 75.558 268.884 75.6152 263.921C75.6152 263.921 76.2587 258.608 75.7942 255.255C75.3094 251.755 74.0502 249.484 72.658 246.973C71.8568 245.529 71.0115 244.004 70.2445 242.121C69.3473 239.918 68.5218 237.983 67.747 236.168C65.6254 231.198 63.8849 227.12 62.099 220.856C58.5861 208.535 57.3664 201.233 57.1759 188.424C56.7478 159.629 63.4417 140.803 78.569 117.841C82.8655 111.319 101.752 92.3774 108.913 87.4634C121.176 79.0649 127.621 75.4017 143.106 68.254Z" fill="#042340"/>
<path d="M146.33 197.799C140.565 203.741 134.775 209.66 129.163 215.75C128.676 216.278 122.349 222.052 122.734 224.055C122.992 225.396 127.833 224.047 128.042 223.992C130.951 223.238 133.714 222.017 136.229 220.354C138.213 219.043 144.013 214.815 142.421 211.582C141.577 209.868 138.849 209.405 137.289 209.15C132.376 208.346 127.14 208.717 122.374 210.147C118.278 211.377 114.302 213.324 110.761 215.739C110.093 216.195 106.741 218.298 107.377 219.835C108.051 221.465 111.656 220.551 112.592 220.313C117.357 219.101 121.817 216.475 125.923 213.827C127.837 212.592 129.74 211.261 131.456 209.753C131.753 209.492 132.532 208.594 132.259 208.879C131.474 209.7 130.809 210.726 130.5 211.831C129.255 216.282 134.681 214.741 136.826 213.713C140.934 211.743 143.556 208.688 146.268 205.138C148.702 201.952 150.896 198.861 154.652 197.134C163.005 193.293 170.498 199.598 176.407 204.847C178.843 207.011 181.971 209.015 185.273 209.42C190.769 210.094 187.586 201.384 186.25 199.119C183.168 193.894 176.724 190.381 170.677 190.763C165.187 191.109 159.406 196.098 158.097 201.541C157.254 205.052 160.635 209.197 163.179 211.104C170.362 216.487 180.084 211.782 186.384 207.237C191.822 203.314 199.475 196.215 197.575 188.538C195.931 181.892 188.144 179.029 182.085 178.737C175.183 178.404 169.916 182.814 167.838 189.349C166.874 192.382 166.42 196.154 167.787 199.171C169.668 203.323 174.282 204.477 178.382 204.514C179.055 204.52 188.94 202.849 188.873 204.098C188.78 205.857 187.1 208.249 186.353 209.669C184.788 212.649 182.759 215.731 182.342 219.159C181.606 225.205 187.299 223.964 190.972 222.153C198.422 218.478 205.581 212.834 211.811 207.341C214.017 205.396 216.349 203.024 215.843 199.816C215.317 196.474 213.249 192.616 210.299 190.877C205.341 187.954 199.618 192.378 196.104 195.585C192.915 198.497 190.064 201.762 186.919 204.722C184.606 206.899 181.477 210.273 178.279 211.208C178.041 211.277 177.711 211.324 177.538 211.145C176.832 210.416 178.258 208.361 178.32 208.266C180.675 204.641 184.352 201.782 188.194 199.92C192.078 198.037 196.123 197.303 200.301 198.506C204.906 199.832 208.357 203.362 212.778 205.065C218.036 207.09 225.724 206.256 228.135 200.304C230.259 195.061 226.049 191.443 221.028 191.875C214.153 192.466 207.972 196.804 202.945 201.271C202.031 202.083 199.752 203.215 200.6 204.098C201.446 204.98 205.529 203.281 205.989 203.1C213.738 200.066 221.443 194.747 226.623 188.133C230.123 183.665 232.292 177 224.803 175.463C220.179 174.513 215.188 175.617 210.762 176.949C204.834 178.733 199.094 181.369 193.872 184.713C186.074 189.709 178.26 197.089 175.954 206.468C175.329 209.009 174.434 214.911 177.497 216.446C179.431 217.416 182.004 216.93 183.946 216.405C189.529 214.895 194.88 212.059 200.075 209.565C208.464 205.538 215.861 201.026 222.725 194.66C225.544 192.045 228.29 189.411 230.367 186.137C232.252 183.168 233.516 179.858 235.305 176.845C237.33 173.433 241.26 170.215 245.447 171.752C250.808 173.72 252.97 181.284 259.261 181.377C264.844 181.459 270.136 175.102 270.339 169.684C270.48 165.938 268.075 162.213 265.649 159.612C260.732 154.341 253.523 151.083 246.619 149.55C232.907 146.505 218.302 149.226 205.66 154.934C199.559 157.689 193.753 161.079 187.608 163.738C183.789 165.391 181.567 166.13 177.59 167.158C175.803 167.619 172.717 168.426 170.657 168.27C168.641 168.117 167.296 166.036 167.314 164.06C167.361 158.778 172.074 154.193 175.728 151.182C187.079 141.829 202.505 138.802 214.661 148.313C219.389 152.013 222.745 156.831 226.541 161.399C228.563 163.833 230.578 166.015 233.525 167.272C239.222 169.701 246.382 165.626 244.336 158.718C241.674 149.729 230.856 148.923 223.332 150.985C209.283 154.834 200.303 166.503 189.388 175.244C183.348 180.081 174.466 185.582 166.697 181.335C157.854 176.502 155.068 164.029 152.81 155.038C150.775 146.934 148.306 138.076 151.144 129.843C152.26 126.607 154.123 122.923 157.336 121.351C162.379 118.885 169.519 120.262 174.781 120.988C185.362 122.445 195.512 124.171 206.103 121.518C210.657 120.376 215.073 118.566 218.744 115.541C221.701 113.105 225.638 108.966 223.105 104.835C217.083 95.0151 203.076 96.6798 193.934 99.6382C184.232 102.778 175.146 108.878 166.758 114.637C165.822 115.28 164.989 115.859 166.738 115.832C170.222 115.779 173.787 115.239 177.23 114.793C184.411 113.863 191.565 112.718 198.748 111.799C206.4 110.82 213.83 110.49 221.501 110.24M144.479 201.915C140.497 202.203 136.538 202.891 132.547 203.163C128.976 203.406 125.412 203.401 121.849 203.038C117.231 202.568 113.528 200.681 109.763 197.935C105.399 194.751 102.703 191.363 101.863 185.888C100.75 178.623 103.04 172.127 106.605 165.911C108.565 162.493 110.831 159.174 113.209 156.036C113.281 155.942 114.716 154.363 114.392 154.373C112.731 154.424 110.787 155.448 109.269 156.005C106.738 156.934 104.128 158.167 101.442 158.572C96.8143 159.271 104.226 150.44 104.96 149.54C106.054 148.198 103.941 148.69 103.118 148.771C100.047 149.072 94.7314 151.033 91.8962 149.135C89.0577 147.234 90.8533 142.593 91.9168 140.362C95.4801 132.886 101.038 126.875 108.93 124.199C114.11 122.443 120.176 121.964 121.51 128.69C123.18 137.107 120.036 146.981 116.501 154.508C114.09 159.64 110.476 164.046 106.081 167.563C102.922 170.091 98.2485 173.165 93.9329 172.313C91.1411 171.762 90.3293 168.076 90.0859 165.703C89.4468 159.472 92.7095 153.023 95.805 147.877C101.591 138.259 111.739 128.784 123.557 128.7C126.159 128.681 129.906 129.231 131.374 131.797C133.895 136.203 129.877 142.608 127.373 145.975C124.59 149.716 120.963 152.889 116.305 153.812C110.822 154.899 109.032 150.448 108.93 145.559C108.779 138.329 111.555 130.865 114.793 124.542C118.951 116.424 125.835 108.969 133.514 104.128C135.941 102.598 139.863 100.677 142.884 101C145.505 101.28 146.169 104.786 147.071 106.685M261.123 169.174C262.865 164.597 264.344 160.252 264.126 155.225C263.85 148.848 261.464 142.651 256.227 138.741C246.155 131.22 234.491 140.746 227.426 147.721C216.918 158.093 208.052 170.126 196.238 179.111C191.605 182.635 186.663 185.996 181.457 188.601C177.726 190.468 172.85 192.445 168.569 191.615C161.426 190.229 162.797 179.567 163.878 174.517C165.679 166.109 169.934 157.754 176.962 152.627C182.802 148.367 189.776 148.104 196.259 151.016C205.044 154.961 208.861 163.624 213.231 171.648C216.662 177.948 221.591 184.678 229.524 184.703C233.557 184.715 237.021 182.378 240.036 179.953C242.954 177.607 245.918 174.796 247.01 171.045C249.119 163.802 245.414 156.308 238.514 153.583C226.403 148.8 212.387 155.586 202.749 162.761C196.844 167.157 187.919 175.067 192.525 183.456C195.47 188.818 201.629 190.768 207.368 191.085C216.298 191.579 225.291 188.999 233.597 186.013C237.856 184.481 241.798 182.56 245.838 180.566C247.753 179.621 245.683 181.423 245.323 181.824C243.624 183.718 241.734 185.7 240.489 187.946C238.73 191.118 241.824 191.428 244.212 190.565C247.61 189.338 250.309 186.61 252.441 183.778C254.248 181.379 256.316 178.093 255.939 174.87C254.802 165.175 239.211 164.82 232.527 165.453C219.597 166.678 207.44 172.53 197.946 181.377C194.414 184.668 190.809 188.436 188.338 192.644C187.305 194.404 185.479 198.238 186.209 200.429C187.533 204.402 199.159 195.793 200.353 194.983C206.669 190.692 213.116 185.891 220.41 183.414C223.177 182.475 228.744 181 230.841 183.996C234.622 189.401 229.679 197.343 225.512 200.751C221.285 204.21 213.875 207.663 208.293 205.657C203.934 204.091 206.439 195.821 208.252 193.288C211.574 188.651 217.032 184.293 223.003 184.786C224.838 184.938 227.078 185.585 228.176 187.218C230.017 189.956 227.976 193.668 226.202 195.804C221.423 201.556 213.896 204.12 206.648 202.789C199.731 201.518 194.725 197.321 195.456 189.879C195.956 184.802 197.972 179.265 200.744 175.016C203.991 170.037 210.305 163.277 216.944 164.154C221.992 164.821 221.332 173.185 220.606 176.523C218.074 188.159 207.771 196.317 197.637 201.188C192.461 203.675 185.521 206.404 179.739 203.911C175.137 201.927 173.285 196.769 173.701 192.083C174.651 181.403 185.245 169.654 196.547 171.336C201.305 172.045 207.717 176.657 206.709 182.125C204.93 191.787 196.709 196.757 187.721 198.298C180.069 199.611 170.977 197.395 165.071 192.166C157.803 185.729 159.731 176.22 164.804 169.018C167.226 165.58 170.263 162.556 173.65 160.09C175.241 158.932 177.624 157.26 179.719 157.169C181.375 157.098 181.292 158.867 180.809 160.027C179.271 163.723 175.798 166.526 172.549 168.571C164.223 173.813 154.456 175.579 145.219 171.908C141.477 170.421 137.452 168.271 135.036 164.871C131.936 160.51 132.256 154.639 134.131 149.862C138.31 139.217 148.871 132.024 159.023 127.993C168.099 124.39 179.922 122.201 188.935 127.245C197.016 131.767 199.994 141.39 197.719 150.132C193.744 165.412 178.524 175.359 165.246 181.605C153.476 187.143 139.805 190.809 126.745 190.731C120.647 190.695 109.776 189.76 107.202 182.718C105.969 179.345 107.39 175.745 109.012 172.791C111.529 168.209 115.097 164.116 118.733 160.422C124.685 154.375 131.463 148.755 138.924 144.707C141.589 143.261 144.37 142.089 146.988 140.549C148.388 139.726 150.007 138.934 151.226 137.836C151.804 137.316 149.653 137.86 148.922 138.117C136.006 142.657 124.573 152.642 118.043 164.767C114.62 171.124 111.656 179.595 113.24 186.958C115.463 197.293 126.405 191.28 131.724 187.624C138.907 182.687 145.119 176.3 150.547 169.486C153.917 165.256 157.122 160.564 159.311 155.579C160.33 153.258 161.743 149.713 160.751 147.077C159.779 144.491 156.583 144.448 154.405 144.873C146.314 146.453 140.011 154.168 138.132 161.971C137.573 164.294 136.958 167.801 139.192 169.59C143.287 172.869 149.18 169.752 152.728 167.407C161.226 161.791 168.576 154.583 171.305 144.436C172.064 141.612 172.348 138.627 169.947 136.558C165.974 133.133 159.661 134.753 155.258 136.132C150.996 137.467 146.987 139.36 143.903 142.711C142.275 144.479 139.086 148.256 139.521 151.016C139.904 153.444 144.119 153.705 145.795 153.5C153.215 152.593 160.201 145.414 165.195 140.445C169.479 136.182 172.98 131.504 175.471 125.966C177.222 122.074 178.84 117.529 178.217 113.15C176.966 104.358 167.188 101.266 159.599 102.029C147.821 103.213 135.736 110.96 127.733 119.449C123.339 124.111 119.975 129.613 117.447 135.498C114.799 141.662 112.42 148.904 112.54 155.724C112.668 162.99 117.634 169.278 123.485 173.03C132.868 179.048 143.307 176.522 152.574 171.513C159.516 167.761 165.757 162.846 171.778 157.762C177.223 153.164 182.561 148.326 187.464 143.137C190.151 140.294 201.435 128.822 191.136 127.91C180.307 126.951 170.359 135.875 163.611 143.293C162.487 144.528 158.24 148.64 159.208 151.078C160.159 153.471 164.792 152.981 166.491 152.669C172.141 151.63 177.236 148.531 181.817 145.195C187.056 141.381 192.388 136.748 196.32 131.527C198.627 128.464 202.597 122.395 197.37 119.595C193.065 117.289 187.202 118.425 182.918 119.273C175.081 120.823 167.67 123.599 160.227 126.444C147.938 131.142 135.802 136.41 123.907 142.046C117.361 145.147 110.95 148.435 105.093 152.741C96.8472 158.805 89.9857 166.454 87.4938 176.7C86.6592 180.131 85.9174 184.823 88.2138 187.967C90.0983 190.546 93.5744 190.878 96.3604 189.993C101.61 188.328 105.84 183.889 108.909 179.464C113.331 173.092 116.118 165.266 116.213 157.45C116.297 150.447 113.501 140.481 104.857 140.549C99.1357 140.594 93.9394 144.376 90.0653 148.22C84.9284 153.317 81.0199 159.711 78.8535 166.659C77.8131 169.995 76.1253 176.597 79.0386 179.683C82.1782 183.008 86.856 178.048 88.5224 175.826C92.3948 170.665 94.3299 164.083 95.733 157.876C95.9316 156.997 98.8195 146.31 95.6609 145.944C92.7094 145.601 88.602 149.86 86.9589 151.65C83.0722 155.884 80.8459 160.98 79.2649 166.461C77.5928 172.259 76.6432 178.296 77.1254 184.35C77.3826 187.578 77.9855 193.325 80.7359 195.669C82.9493 197.555 85.6693 194.598 86.8972 193.06C89.25 190.113 90.6843 186.422 91.7934 182.853C92.3393 181.096 93.5651 177.784 92.8631 175.806C91.8656 172.994 87.8974 177.692 87.4938 178.3C85.6986 181.007 84.8205 184.251 84.5931 187.468C84.5491 188.091 84.4601 191.798 85.8069 189.068C87.4239 185.792 88.3108 182.01 89.0161 178.446C89.1023 178.01 90.2942 173.272 89.4687 172.438C89.3368 172.305 89.08 172.506 88.9441 172.635C88.0698 173.467 87.3155 175.143 86.9075 176.107C85.6236 179.142 84.7683 182.41 84.6343 185.722C84.5831 186.986 84.4472 190.242 86.1772 190.804C88.8055 191.658 91.3334 187.193 92.1328 185.42C92.755 184.041 94.6314 174.753 90.9602 179.329C85.826 185.729 86.0961 196.07 90.0653 202.976C93.2325 208.486 99.0441 208.931 102.82 203.703C104.386 201.535 106.104 198.107 105.474 195.305C104.147 189.407 96.9362 190.7 93.4597 193.496C89.2239 196.903 86.4179 202.705 87.0824 208.256C87.6852 213.292 91.2515 216.947 95.6404 218.878C98.7203 220.234 103.143 221.124 106.173 218.982C109.372 216.722 110.485 211.977 110.925 208.381C111.494 203.748 111.298 198.498 109.959 193.995C109.069 191.006 107.402 189.202 104.25 189.016C95.2986 188.488 88.8159 198.927 88.7076 207.009C88.6015 214.918 93.9934 222.626 100.701 226.383C108.67 230.846 116.051 225.415 119.566 218.068C122.046 212.882 123.858 206.981 124.863 201.313C125.336 198.644 125.564 195.816 123.865 193.496C118.713 186.461 106.398 188.446 100.619 193.278C95.1993 197.81 91.3026 207.351 92.318 214.503C93.0685 219.789 98.2988 221.769 103.015 220.614C108.27 219.328 112.685 214.857 113.929 209.545C114.207 208.357 114.498 206.549 113.641 205.47C112.986 204.646 111.313 204.696 110.555 205.345C109.707 206.073 112.714 206.006 113.826 206.011C117.694 206.027 120.53 204.827 123.598 202.352C133.985 193.97 140.811 182.328 143.697 169.299C145.931 159.215 145.126 148.772 136.25 142.171C123.998 133.058 107.19 139.233 97.0701 148.708C86.3899 158.708 83.7396 174.051 89.8287 187.343C93.3531 195.036 101.648 198.944 109.516 194.91C114.745 192.229 119.328 187.482 123.207 183.144C126.838 179.083 129.545 174.63 131.58 169.569C133.185 165.578 134.798 161.017 133.905 156.618C132.792 151.136 128.662 149.194 123.577 151.484C117.343 154.291 111.344 159.672 108.035 165.713C106.079 169.283 105.221 174.908 111.296 174.288C119.434 173.458 127.718 167.583 134.46 163.499C141.331 159.337 148.01 154.52 155.402 151.297C162.623 148.148 175.79 145.056 181.056 153.375C187.405 163.406 179.209 176.119 172.179 183.05C163.362 191.742 151.573 197.477 139.346 199.036C132.026 199.97 122.147 199.164 123.382 189.256C124.597 179.509 134.081 172.9 142.884 170.671C146.616 169.726 150.959 169.497 154.662 170.796C159.335 172.434 161.529 177.607 161.615 182.312C161.82 193.496 151.587 202.453 143.327 208.193C141.888 209.193 123.624 221.853 123.547 214.128C123.513 210.784 125.661 207.279 127.63 204.784C130.766 200.812 134.841 197.911 139.233 195.533C142.73 193.64 146.226 192.105 150.218 192.374M120.965 132.317C117.626 131.727 114.51 129.408 112.636 126.521M112.636 126.521C112.411 126.174 112.203 125.819 112.016 125.457C108.386 118.461 112.154 109.073 116.83 103.578C121.83 97.7016 129.682 94.7879 137.493 93.9313M112.636 126.521C110.562 131.62 109.306 137.068 109.28 142.316C109.233 151.601 112.128 160.928 120.615 165.682C123.764 167.446 126.926 168.382 130.025 168.231M112.636 126.521C114.394 122.202 116.739 118.133 119.422 114.647C123.349 109.545 129.732 102.788 136.497 107.049C139.996 109.254 142.553 112.483 144.593 116.079M137.493 93.9313C139.403 93.7218 141.312 93.6353 143.175 93.6588M137.493 93.9313C137.716 92.1725 141.408 90.5732 142.257 90.1797C142.876 89.8929 143.502 89.6185 144.135 89.3564M137.493 93.9313C137.442 94.3259 137.567 94.7284 137.937 95.1272C139.323 96.6218 141.742 97.4207 144.042 97.9232M143.175 93.6588C144.209 93.6717 145.229 93.7185 146.227 93.7968C151.017 94.1723 158.152 95.436 161.217 99.8597M143.175 93.6588C143.178 94.2404 143.231 94.8406 143.337 95.4599C143.486 96.3315 143.722 97.1533 144.042 97.9232M143.175 93.6588C143.167 92.0953 143.515 90.6654 144.135 89.3564M161.217 99.8597C161.481 100.24 161.714 100.644 161.914 101.073C162.677 102.715 162.822 104.381 162.551 105.992M161.217 99.8597C156.641 99.6513 152.075 99.2915 147.585 98.5573C146.574 98.392 145.327 98.2038 144.042 97.9232M161.217 99.8597C164.69 100.018 168.168 100.089 171.624 100.17M162.551 105.992C162.459 106.534 162.321 107.07 162.142 107.597M162.551 105.992C161.752 106.469 160.949 106.94 160.145 107.408M162.551 105.992C165.643 104.149 168.688 102.231 171.624 100.17M162.142 107.597C162.131 107.63 162.12 107.663 162.109 107.696M162.142 107.597C162.069 107.622 161.996 107.647 161.923 107.673M162.142 107.597C169.626 105.048 177.266 103.972 185.062 103.338M162.109 107.696C161.386 109.772 160.056 111.705 158.591 113.317C155.471 116.749 151.628 119.677 147.462 121.999M162.109 107.696C165.588 108.118 169.093 108.085 172.313 107.673C173.808 107.481 175.298 107.204 176.773 106.848M162.109 107.696C162.047 107.688 161.985 107.68 161.923 107.673M147.462 121.999C144.04 123.906 140.399 125.404 136.764 126.434C135.941 126.667 132.862 127.855 131.899 127.307C131.394 127.02 132.119 126.121 132.454 125.644C133.559 124.072 134.384 123.274 135.972 122.006C138.695 119.833 141.663 117.983 144.677 116.227M147.462 121.999C146.631 120.04 145.722 118.086 144.677 116.227M147.462 121.999C147.85 122.912 148.22 123.825 148.58 124.731M144.677 116.227C146.199 115.34 147.732 114.477 149.251 113.608C150.614 112.828 151.985 112.053 153.359 111.277M144.677 116.227C144.649 116.178 144.621 116.128 144.593 116.079M153.359 111.277C155.621 110 157.891 108.719 160.145 107.408M153.359 111.277C150.38 112.725 147.453 114.333 144.593 116.079M153.359 111.277C154.912 110.523 156.478 109.812 158.056 109.149C159.341 108.609 160.629 108.119 161.923 107.673M160.145 107.408C160.736 107.51 161.329 107.598 161.923 107.673M160.145 107.408C155.679 106.637 151.352 105.085 147.832 102.59C146.093 101.358 144.819 99.7932 144.042 97.9232M171.624 100.17C173.012 99.1955 174.375 98.1893 175.707 97.1437C176.423 96.5819 177.469 95.7901 178.456 94.8696M171.624 100.17C172.576 100.192 173.525 100.215 174.473 100.241C179.536 100.38 184.711 100.629 189.904 100.727M178.456 94.8696C180.76 92.7222 182.749 89.8744 179.492 87.6124C174.314 84.0146 166.076 84.6789 160.278 85.3153C160.03 85.3425 159.782 85.3712 159.534 85.4013M178.456 94.8696C173.523 94.8785 168.777 93.6933 164.598 90.346C162.962 89.0355 161.296 87.2113 159.534 85.4013M178.456 94.8696C181.301 94.8645 184.208 94.4623 187.104 93.8488C189.673 93.3045 192.168 92.5441 194.631 91.6666M159.534 85.4013C154.305 86.0369 149.027 87.3303 144.135 89.3564M159.534 85.4013C157.88 83.7022 156.141 82.0157 154.263 80.7786M144.135 89.3564C145.14 87.2345 146.862 85.4305 148.943 83.8913C150.631 82.6427 152.413 81.6128 154.263 80.7786M189.904 100.727C190.216 100.732 190.528 100.738 190.841 100.742M189.904 100.727C190.055 99.2448 190.571 97.6506 191.517 95.938C192.362 94.4079 193.417 92.9831 194.631 91.6666M189.904 100.727C189.882 100.941 189.868 101.153 189.861 101.362M190.841 100.742C192.084 100.761 193.329 100.77 194.573 100.766M190.841 100.742C193.229 99.1888 195.469 97.42 197.503 95.4702C199.511 93.5464 201.466 91.4058 203.229 89.1011M190.841 100.742C190.517 100.953 190.19 101.159 189.861 101.362M194.573 100.766C199.15 100.75 203.718 100.554 208.211 99.9969M194.573 100.766C195.593 100.568 196.621 100.393 197.658 100.241C200.641 99.8043 204.315 99.4209 207.818 99.4776M194.573 100.766C192.981 101.074 191.41 101.438 189.859 101.855M208.211 99.9969C209.059 99.8918 209.904 99.7738 210.747 99.6418M208.211 99.9969C208.078 99.8259 207.947 99.6528 207.818 99.4776M208.211 99.9969C208.55 100.435 208.899 100.859 209.258 101.27M210.747 99.6418C212.394 99.3836 214.03 99.0716 215.65 98.6967M210.747 99.6418C211.63 99.7314 212.484 99.8595 213.293 100.033C213.713 100.124 212.579 100.558 212.161 100.657C211.051 100.919 210.189 101.104 209.258 101.27M210.747 99.6418C209.797 99.5455 208.815 99.4938 207.818 99.4776M215.65 98.6967C215.656 98.6952 215.662 98.6938 215.669 98.6924C217.371 98.298 221.122 97.6477 222.077 95.647C222.349 95.0766 222.389 94.4923 222.263 93.9114M215.65 98.6967C216.845 97.5748 218.118 96.5395 219.474 95.6158C220.38 94.999 221.311 94.4313 222.263 93.9114M215.65 98.6967C214.098 100.154 212.678 101.758 211.382 103.453M222.263 93.9114C221.742 91.4954 218.366 89.1414 216.996 88.1217C214.346 86.1508 211.47 84.524 208.692 82.7505M222.263 93.9114C225.718 92.0259 229.459 90.7688 233.312 90.0796M208.692 82.7505C208.341 82.5265 207.991 82.3001 207.644 82.0704M208.692 82.7505C211.256 81.8056 213.839 81.1191 216.275 80.7003C223.933 79.3839 232.32 79.7527 239.575 82.7722M208.692 82.7505C208.104 82.9671 207.517 83.1972 206.933 83.4408M207.644 82.0704C207.614 82.0503 207.583 82.0301 207.553 82.01C205.679 80.7655 202.628 78.9551 202.513 76.3245C202.396 73.648 206.579 68.9226 209.075 72.0109C210.475 73.7427 209.874 76.4129 209.24 78.2577C208.795 79.5513 208.258 80.8242 207.644 82.0704ZM207.644 82.0704C207.417 82.5309 207.18 82.9879 206.933 83.4408M206.933 83.4408C205.859 85.4105 204.602 87.3056 203.229 89.1011M206.933 83.4408C202.325 85.3628 197.9 88.1229 194.631 91.6666M203.229 89.1011C203.098 88.8457 202.91 88.6595 202.636 88.6622C200.876 88.6794 198.513 90.2057 196.958 90.8033C196.185 91.1007 195.41 91.3895 194.631 91.6666M203.229 89.1011C203.45 89.5313 203.514 90.1578 203.572 90.4084C204.297 93.5468 205.534 96.2274 207.388 98.8795C207.53 99.0815 207.673 99.2809 207.818 99.4776M189.861 101.362C189.331 101.688 188.794 102.004 188.251 102.309M189.861 101.362C189.856 101.528 189.855 101.692 189.859 101.855M188.251 102.309C187.688 102.626 187.118 102.93 186.543 103.222M188.251 102.309C188.784 102.152 189.32 102 189.859 101.855M188.251 102.309C187.178 102.627 186.114 102.97 185.062 103.338M186.543 103.222C183.428 104.804 180.138 106.034 176.773 106.848M186.543 103.222C186.048 103.259 185.555 103.298 185.062 103.338M186.543 103.222C187.679 103.138 188.818 103.061 189.961 102.989M176.773 106.848C179.46 105.504 182.224 104.33 185.062 103.338M176.773 106.848C171.422 109.524 166.376 112.871 161.656 116.788C159.996 118.166 158.357 119.613 156.751 121.125M154.263 80.7786C161.367 77.5762 169.481 77.2567 177.188 78.5176C180.988 79.1391 184.642 80.2913 188.071 82.0516C189.462 82.7658 189.389 81.631 189.172 80.2742C188.288 74.7668 180.591 72.6189 176.036 71.8862C169.404 70.8192 161.945 72.5513 156.174 75.9607C154.447 76.9812 152.779 78.0947 151.138 79.2506M154.263 80.7786C153.264 80.1198 152.224 79.5885 151.138 79.2506M151.138 79.2506C146.811 82.2983 142.672 85.6407 138.122 88.3503C136.945 89.0511 131.699 92.3848 134.172 88.5166C137.325 83.5851 142.812 78.4679 149.056 78.8606C149.77 78.9055 150.463 79.0408 151.138 79.2506ZM209.258 101.27C209.933 102.044 210.642 102.771 211.382 103.453M209.258 101.27C208.608 101.386 207.925 101.494 207.1 101.613C202.964 102.21 198.802 102.481 194.634 102.715C193.07 102.803 191.513 102.892 189.961 102.989M211.382 103.453C213.893 105.766 216.761 107.564 219.86 108.91M211.382 103.453C211.264 103.608 211.146 103.764 211.03 103.921C209.813 105.555 206.599 109.596 208.746 111.799C209.076 112.138 209.461 112.426 209.888 112.671M219.86 108.91C223.845 110.641 228.212 111.627 232.692 112.007C234.379 112.15 235.996 112.124 237.543 111.928M219.86 108.91C219.254 109.117 218.652 109.339 218.055 109.575C215.938 110.41 213.936 111.481 212.077 112.751M219.86 108.91C228.028 106.115 236.972 105.92 244.753 109.501M237.543 111.928C238.46 111.812 239.352 111.637 240.219 111.402M237.543 111.928C233.5 112.728 229.503 113.524 225.448 113.927M237.543 111.928C237.743 111.889 237.943 111.849 238.144 111.81C238.835 111.673 239.527 111.537 240.219 111.402M240.219 111.402C241.817 110.97 243.328 110.336 244.753 109.501M240.219 111.402C242.225 111.011 244.231 110.625 246.237 110.238M244.753 109.501C247.053 108.152 249.126 106.277 250.96 103.879C252.836 101.427 253.215 98.7158 252.657 96.1031M244.753 109.501C245.252 109.731 245.747 109.976 246.237 110.238M252.657 96.1031C252.229 94.096 251.248 92.1469 249.969 90.4173M252.657 96.1031C252.96 96.1859 253.262 96.2721 253.564 96.3621M252.657 96.1031C249.186 95.1525 245.717 94.6559 242.135 94.2126C239.634 93.903 236.333 93.7001 234.317 91.9051C233.683 91.3405 233.372 90.7246 233.312 90.0796M249.969 90.4173C248.827 88.8744 247.449 87.5062 246.013 86.4274C244.017 84.9281 241.852 83.7197 239.575 82.7722M249.969 90.4173C251.161 90.6703 252.538 91.0257 253.988 91.4878M249.969 90.4173C249.904 90.4036 249.841 90.3902 249.777 90.3772C244.388 89.2647 238.739 89.1091 233.312 90.0796M239.575 82.7722C236.389 84.8536 233.091 87.6705 233.312 90.0796M239.575 82.7722C241.795 81.3221 243.959 80.2289 244.84 79.8792C246.809 79.0975 249.663 78.3211 251.66 79.6194C254.355 81.3723 254.173 86.0843 254.108 88.8285C254.087 89.7172 254.045 90.6034 253.988 91.4878M189.859 101.855C189.868 102.241 189.902 102.619 189.961 102.989M189.961 102.989C190.192 104.442 190.796 105.77 191.694 106.982M191.694 106.982C193.412 109.302 196.205 111.194 199.514 112.71M191.694 106.982C194.223 106.715 196.762 106.83 199.252 107.423C202.89 108.29 204.815 109.947 205.654 112.605M191.694 106.982C184.562 107.738 177.517 111.543 171.928 116.276M199.514 112.71C201.563 113.649 203.809 114.443 206.12 115.106M199.514 112.71C201.56 112.635 203.608 112.6 205.654 112.605M199.514 112.71C192.066 112.984 184.65 113.786 177.456 115.105C175.598 115.445 173.755 115.837 171.928 116.276M206.12 115.106C206.87 115.32 207.627 115.521 208.386 115.709M206.12 115.106C206.164 115.625 206.185 116.172 206.185 116.747C206.185 117.168 206.177 117.588 206.162 118.005M206.12 115.106C206.042 114.189 205.892 113.356 205.654 112.605M208.386 115.709C215.457 117.455 222.73 118.03 226.541 117.765C228.587 117.624 231.049 117.327 232.918 116.352C234.735 115.404 229.202 114.465 227.179 114.169C226.603 114.085 226.026 114.004 225.448 113.927M208.386 115.709C207.606 116.436 206.864 117.203 206.162 118.005M208.386 115.709C209.308 114.848 210.283 114.042 211.304 113.297M225.448 113.927C221.046 113.338 216.575 112.947 212.077 112.751M225.448 113.927C223.216 114.149 220.967 114.251 218.682 114.169C216.698 114.098 213.694 114.102 211.304 113.297M212.077 112.751C211.348 112.719 210.618 112.693 209.888 112.671M212.077 112.751C211.817 112.929 211.559 113.111 211.304 113.297M209.888 112.671C208.478 112.63 207.066 112.608 205.654 112.605M209.888 112.671C210.322 112.921 210.799 113.127 211.304 113.297M171.928 116.276C166.744 117.523 161.685 119.158 156.751 121.125M171.928 116.276C170.187 117.75 168.587 119.314 167.17 120.904C165.322 122.977 162.997 125.927 163.076 128.929C163.181 132.914 167.207 135.837 169.896 138.148C170.5 138.668 171.106 139.183 171.705 139.702M156.751 121.125C153.988 122.226 151.264 123.431 148.58 124.731M156.751 121.125C154.394 123.341 152.108 125.696 149.926 128.171M148.58 124.731C145.26 126.339 142 128.091 138.801 129.968C130.411 134.892 122.346 140.372 113.991 145.362C113.266 145.794 111.501 147.278 111.707 146.453C111.958 145.452 112.758 144.678 113.374 143.854C115 141.681 117.212 139.005 119.01 137.078C126.428 129.126 135.143 121.85 144.593 116.079M148.58 124.731C148.872 125.465 149.156 126.194 149.437 126.912C149.6 127.332 149.764 127.751 149.926 128.171M149.926 128.171C139.925 139.52 132.142 153.413 130.025 168.231M149.926 128.171C151.843 133.107 153.72 138.054 155.814 142.919C156.692 144.959 157.556 147.092 158.491 149.209M130.025 168.231C129.814 169.708 129.659 171.194 129.564 172.687C129.306 176.736 129.322 181.78 133.267 184.225C137.325 186.739 143.107 186.528 147.534 185.67C153.978 184.42 160.204 181.434 165.75 177.968C168.014 176.553 170.265 174.975 172.409 173.238M130.025 168.231C132.706 168.099 135.339 167.154 137.875 165.225C143.15 161.212 147.346 155.984 152.934 152.315C154.736 151.132 156.588 150.097 158.491 149.209M172.409 173.238C172.992 172.766 173.567 172.282 174.132 171.786M172.409 173.238C173.151 173.646 174.112 173.745 175.337 173.373C177.044 172.856 178.654 171.876 180.141 170.704M172.409 173.238C171.93 172.975 171.542 172.582 171.233 172.104M174.132 171.786C177.054 169.222 179.713 166.344 181.848 163.16M174.132 171.786C173.171 171.912 172.203 172.018 171.233 172.104M174.132 171.786C176.167 171.519 178.178 171.162 180.141 170.704M181.848 163.16C182.27 162.53 182.672 161.887 183.051 161.233C184.28 159.115 185.158 156.782 185.362 154.375M181.848 163.16C178.777 165.091 175.176 166.45 171.84 165.339C171.391 165.19 170.951 165.002 170.52 164.784M181.848 163.16C182.926 162.482 183.939 161.733 184.853 160.996M185.362 154.375C185.461 153.212 185.403 152.031 185.15 150.85C184.429 147.484 182.101 146.014 179.317 145.464M185.362 154.375C184.844 154.031 184.34 153.63 183.854 153.168C181.819 151.233 180.149 148.967 178.425 146.753M185.362 154.375C186.478 155.116 187.662 155.596 188.888 155.866M179.317 145.464C178.633 145.329 177.92 145.249 177.198 145.21M179.317 145.464C179.014 145.887 178.717 146.317 178.425 146.753M179.317 145.464C183.122 140.154 187.811 135.866 193.461 132.213C195.567 130.852 197.763 129.632 200.021 128.612M177.198 145.21C175.42 145.115 173.58 145.269 171.932 145.455C169.839 145.692 167.797 146.067 165.806 146.582M177.198 145.21C176.898 144.844 176.594 144.481 176.283 144.125C174.874 142.507 173.31 141.09 171.705 139.702M177.198 145.21C177.613 145.718 178.021 146.234 178.425 146.753M165.806 146.582C163.288 147.233 160.85 148.108 158.491 149.209M165.806 146.582C167.287 144.671 168.823 142.807 170.461 141.027C170.872 140.581 171.286 140.139 171.705 139.702M165.806 146.582C164.02 148.887 162.315 151.259 160.611 153.63M158.491 149.209C159.152 150.704 159.848 152.191 160.611 153.63M160.611 153.63C161.685 155.658 162.89 157.592 164.31 159.321C165.961 161.33 168.094 163.553 170.52 164.784M160.611 153.63C157.249 158.306 153.889 162.979 149.91 167.127C148.92 168.158 147.104 169.18 149.025 170.193C151.505 171.5 154.469 171.907 157.213 172.126C161.787 172.491 166.548 172.522 171.233 172.104M170.52 164.784C170.419 165.365 170.337 165.949 170.276 166.534C170.085 168.373 170.289 170.641 171.233 172.104M170.52 164.784C171.423 159.589 173.852 154.566 176.386 150.07C177.033 148.923 177.712 147.818 178.425 146.753M184.853 160.996C185.17 160.74 185.475 160.485 185.767 160.235C187.284 158.937 188.699 157.538 190.021 156.055M184.853 160.996C183.537 163.072 182.429 165.336 181.529 167.792C181.238 168.587 180.969 169.401 180.728 170.226M184.853 160.996C186.031 159.136 187.377 157.427 188.888 155.866M190.021 156.055C191.126 154.816 192.165 153.518 193.144 152.173M190.021 156.055C189.64 156.011 189.262 155.948 188.888 155.866M190.021 156.055C190.862 156.153 191.718 156.163 192.581 156.1M193.144 152.173C195.592 148.809 197.661 145.143 199.429 141.331M193.144 152.173C191.604 153.296 190.185 154.527 188.888 155.866M193.144 152.173C194.239 151.374 195.395 150.63 196.613 149.938M199.429 141.331C201.525 136.812 203.197 132.086 204.57 127.411C204.628 127.214 204.684 127.017 204.739 126.82M199.429 141.331C199.826 142.114 200.352 142.811 201.023 143.397M199.429 141.331C198.545 139.584 198.308 137.414 198.563 135.123C198.812 132.886 199.307 130.705 200.021 128.612M204.739 126.82C205.281 124.882 205.684 122.946 205.925 120.98M204.739 126.82C203.144 127.31 201.568 127.914 200.021 128.612M204.739 126.82C210.122 125.167 215.729 124.809 221.199 126.492M205.925 120.98C206.045 119.997 206.125 119.007 206.162 118.005M205.925 120.98C211.852 120.173 218.857 120.264 222.992 123.971C223.625 124.538 224.093 125.154 224.421 125.805M205.925 120.98C205.129 121.088 204.353 121.213 203.606 121.347M206.162 118.005C205.238 119.06 204.384 120.177 203.606 121.347M171.705 139.702C179.655 131.39 189.06 124.649 200.414 122.006C201.388 121.78 202.463 121.552 203.606 121.347M192.581 156.1C196.952 155.779 201.503 153.581 205.167 151.484C205.379 151.362 205.59 151.239 205.801 151.115M192.581 156.1C193.947 154.065 195.275 151.996 196.613 149.938M192.581 156.1C190.177 159.682 187.655 163.16 184.749 166.295C183.559 167.578 182.21 168.984 180.728 170.226M205.801 151.115C209.171 149.128 212.402 146.757 215.305 144.076M205.801 151.115C206.219 149.105 207.303 147.133 208.512 145.417M205.801 151.115C205.535 152.399 205.54 153.698 205.959 154.955C206.357 156.152 206.987 157.176 207.793 158.05M215.305 144.076C215.646 143.761 215.982 143.442 216.313 143.119M215.305 144.076C215.708 143.937 216.104 143.79 216.492 143.636C217.144 143.378 217.76 143.115 218.349 142.842M215.305 144.076C213.163 144.815 210.826 145.332 208.512 145.417M216.313 143.119C217.064 142.387 217.789 141.634 218.487 140.861C220.159 139.008 222.655 135.968 224.036 132.788M216.313 143.119C213.847 143.506 211.38 144.074 208.97 144.786M216.313 143.119C216.992 143.013 217.671 142.92 218.349 142.842M224.036 132.788C224.729 131.191 225.14 129.559 225.025 128.025M224.036 132.788C224.075 132.769 224.115 132.751 224.155 132.733C225.708 132.021 227.363 131.372 229.087 130.81M224.036 132.788C218.89 135.167 214.202 138.598 210.484 142.909C209.995 143.476 209.478 144.107 208.97 144.786M225.025 128.025C224.967 127.255 224.776 126.509 224.421 125.805M225.025 128.025C223.76 127.395 222.483 126.887 221.199 126.492M225.025 128.025C225.498 128.26 225.969 128.513 226.438 128.783C227.204 129.224 228.336 129.925 229.087 130.81M224.421 125.805C224.814 125.756 225.208 125.719 225.605 125.696C228.329 125.538 231.88 126.123 233.083 129.074C233.161 129.265 233.228 129.459 233.284 129.655M224.421 125.805C223.327 125.941 222.252 126.176 221.199 126.492M203.606 121.347C202.113 123.593 200.901 126.035 200.021 128.612M180.141 170.704C180.158 170.7 180.175 170.696 180.192 170.692C180.336 170.658 180.481 170.623 180.625 170.588M180.141 170.704C180.339 170.548 180.535 170.388 180.728 170.226M180.625 170.588C186.824 169.074 192.583 166.334 198.213 163.374C201.435 161.681 204.643 159.916 207.793 158.05M180.625 170.588C178.538 178.04 178.827 186.377 185.87 191.064C187.408 192.088 191.071 193.816 193.029 192.353C194.482 191.267 194.614 186.932 195.292 185.389C197.022 181.448 199.749 178.092 202.873 175.192C205.45 172.799 208.342 170.754 211.445 169.034M180.625 170.588C180.659 170.467 180.693 170.346 180.728 170.226M207.793 158.05C211.749 155.705 215.613 153.201 219.3 150.475C222.369 148.206 225.401 145.736 227.95 142.847M207.793 158.05C209.426 159.823 211.778 160.981 214.368 161.728M227.95 142.847C228.521 142.2 229.068 141.532 229.586 140.84C231.666 138.061 234.378 133.432 233.284 129.655M227.95 142.847C227.537 142.781 227.122 142.728 226.706 142.69C224.005 142.444 221.189 142.515 218.349 142.842M227.95 142.847C231.82 143.467 235.509 145.285 238.679 147.524C240.787 149.013 243.498 150.853 243.986 153.75C244.44 156.444 242.897 158.761 241.321 160.718M233.284 129.655C239.478 128.259 246.148 128.117 251.908 130.215M233.284 129.655C231.854 129.977 230.449 130.366 229.087 130.81M221.199 126.492C217.873 127.49 214.772 129.304 212.038 131.423C207.685 134.798 204.196 138.953 201.023 143.397M201.023 143.397C199.5 145.529 198.051 147.728 196.613 149.938M201.023 143.397C201.9 144.164 203.024 144.738 204.426 145.06C205.261 145.252 206.119 145.364 206.987 145.408M196.613 149.938C196.997 149.72 197.386 149.508 197.781 149.301C200.607 147.821 203.727 146.489 206.987 145.408M229.087 130.81C229.712 131.546 230.073 132.41 229.74 133.356C229.032 135.368 226.858 137.177 225.379 138.366C222.992 140.285 220.925 141.652 218.349 142.842M208.512 145.417C208.002 145.435 207.493 145.433 206.987 145.408M208.512 145.417C208.663 145.202 208.816 144.992 208.97 144.786M206.987 145.408C207.643 145.19 208.304 144.982 208.97 144.786M246.237 110.238C247.131 110.715 248.007 111.245 248.862 111.83C250.324 112.831 251.663 113.929 252.871 115.111M246.237 110.238C248.403 109.82 250.569 109.402 252.733 108.976M252.871 115.111C253.591 115.817 254.264 116.553 254.889 117.316M252.871 115.111C252.538 113.064 252.774 110.228 252.75 109.554C252.743 109.361 252.738 109.168 252.733 108.976M252.871 115.111C253.068 116.323 253.464 117.259 254.231 117.308C254.449 117.322 254.669 117.324 254.889 117.316M254.889 117.316C257.243 120.193 258.902 123.461 259.766 126.973M254.889 117.316C259.848 117.126 265.275 111.414 267.006 107.309C267.214 106.816 267.378 106.335 267.501 105.865M259.766 126.973C260.456 129.775 260.638 132.734 260.263 135.774M259.766 126.973C259.728 126.98 259.69 126.988 259.652 126.995C256.929 127.543 254.227 128.615 251.908 130.215M259.766 126.973C268.227 125.339 275.764 131.359 272.376 140.404C271.612 142.443 270.623 144.346 269.466 146.142M260.263 135.774C260.072 137.32 259.737 138.887 259.251 140.466C258.609 142.551 257.797 144.561 256.841 146.496M260.263 135.774C263.104 138.908 264.985 142.692 265.739 146.687M260.263 135.774C260.214 135.72 260.164 135.666 260.115 135.612C257.776 133.08 254.97 131.331 251.908 130.215M256.841 146.496C254.409 151.421 251.047 155.861 247.189 159.821M256.841 146.496C257.045 146.525 257.245 146.553 257.44 146.578C260.193 146.932 262.98 146.957 265.739 146.687M256.841 146.496C253.409 145.997 248.889 144.828 246.825 141.838C245.367 139.726 246.005 137.193 247.206 135.165C248.39 133.165 250.022 131.516 251.908 130.215M247.189 159.821C246.501 160.527 245.797 161.219 245.08 161.894M247.189 159.821C245.384 160.32 243.563 160.764 241.736 161.151M247.189 159.821C252.8 158.27 258.257 156.193 263.264 153.678M245.08 161.894C244.576 162.369 244.065 162.837 243.549 163.297M245.08 161.894C247.623 162.1 250.198 162.545 252.648 163.321M245.08 161.894C244.142 161.819 243.208 161.775 242.287 161.76M243.549 163.297C240.995 165.571 238.302 167.662 235.572 169.569C231.691 172.282 227.695 174.783 223.558 177.074C223.127 177.313 219.459 178.658 222.159 178.633C228.815 178.57 235.819 177.566 242.377 175.502M243.549 163.297C243.141 162.768 242.722 162.255 242.287 161.76M243.549 163.297C244.824 164.951 245.985 166.756 247.129 168.619M242.377 175.502C245.402 174.551 248.332 173.374 251.089 171.961M242.377 175.502C243.282 172.865 245.295 170.558 247.129 168.619M242.377 175.502C242.128 176.23 241.963 176.983 241.908 177.76C241.614 181.99 245.21 184.817 248.841 185.846C255.347 187.691 263.65 185.629 267.274 179.537C268.02 178.282 268.216 177.138 268.061 176.063M251.089 171.961C251.447 171.777 251.802 171.59 252.153 171.399C254.651 170.04 257.022 168.405 259.077 166.458M251.089 171.961C251.317 171.751 251.521 171.566 251.69 171.409C253.926 169.334 256.293 167.59 258.983 166.392M251.089 171.961C249.191 173.705 245.677 177.104 247.432 179.568C251.04 184.634 262.406 181.462 263.982 175.847C264.153 175.24 264.215 174.635 264.19 174.04M259.077 166.458C259.146 166.393 259.214 166.327 259.282 166.261M259.077 166.458C259.817 166.987 260.522 167.568 261.184 168.208C261.56 168.57 261.922 168.965 262.258 169.388M259.077 166.458C259.046 166.436 259.014 166.414 258.983 166.392M259.282 166.261C261.56 164.057 263.432 161.459 264.63 158.416C265.428 156.391 265.894 154.31 266.051 152.232M259.282 166.261C260.355 165.804 261.479 165.433 262.666 165.162C267.563 164.044 277.801 163.278 279.185 170.193C280.326 175.891 272.241 176.898 268.061 176.063M259.282 166.261C259.182 166.304 259.082 166.348 258.983 166.392M266.051 152.232C266.092 151.689 266.111 151.147 266.11 150.605M266.051 152.232C265.322 152.622 264.6 152.995 263.9 153.355C263.689 153.463 263.477 153.571 263.264 153.678M266.051 152.232C269.857 150.198 273.873 147.703 276.193 144.194M266.11 150.605C266.107 149.287 265.982 147.976 265.739 146.687M266.11 150.605C267.33 149.184 268.461 147.703 269.466 146.142M266.11 150.605C265.205 151.659 264.251 152.681 263.264 153.678M265.739 146.687C266.989 146.565 268.233 146.382 269.466 146.142M214.368 161.728C218.78 163 223.882 163.077 227.302 162.959C227.914 162.937 228.527 162.909 229.143 162.872M214.368 161.728C212.842 163.68 211.267 166.483 211.445 169.034M214.368 161.728C214.646 161.374 214.922 161.047 215.185 160.755C219.405 156.08 225.231 154.23 231.345 155.34C235.61 156.114 238.741 158.088 241.321 160.718M229.143 162.872C232.114 162.697 235.131 162.347 238.15 161.835M229.143 162.872C232.146 162.322 235.17 161.981 238.15 161.835M229.143 162.872C222.971 164.004 216.884 166.018 211.445 169.034M238.15 161.835C239.036 161.685 239.923 161.52 240.809 161.342M238.15 161.835C238.923 161.797 239.693 161.773 240.459 161.761M240.809 161.342C241.118 161.28 241.427 161.216 241.736 161.151M240.809 161.342C240.978 161.138 241.15 160.93 241.321 160.718M240.809 161.342C240.746 161.417 240.684 161.492 240.623 161.566C240.568 161.631 240.514 161.696 240.459 161.761M241.736 161.151C241.599 161.005 241.461 160.86 241.321 160.718M241.736 161.151C241.923 161.351 242.106 161.554 242.287 161.76M263.264 153.678C259.911 157.064 256.172 160.169 252.648 163.321M276.193 144.194C277.399 142.368 278.147 140.268 278.167 137.816C278.191 134.862 277.462 131.95 276.902 129.074C276.044 124.67 275.551 120.085 274.31 115.77C273.174 111.826 271.316 108.485 268.896 105.698M276.193 144.194C283.896 141.124 289.872 135.327 288.895 125.977C288.448 121.695 286.776 117.574 284.606 113.909C282.539 110.42 279.863 106.877 275.667 105.958C273.514 105.486 271.225 105.467 268.896 105.698M276.193 144.194C274.731 144.777 273.206 145.261 271.656 145.653C270.931 145.836 270.2 145.999 269.466 146.142M268.896 105.698C268.527 105.274 268.146 104.863 267.752 104.465M268.896 105.698C268.432 105.744 267.967 105.8 267.501 105.865M267.752 104.465C264.065 100.733 259.286 98.1111 253.881 96.4577C253.776 96.4254 253.67 96.3935 253.564 96.3621M267.752 104.465C267.709 104.92 267.626 105.386 267.501 105.865M267.752 104.465C268.392 97.7486 260.466 93.5528 253.988 91.4878M253.564 96.3621C253.73 94.7404 253.884 93.1172 253.988 91.4878M253.564 96.3621C253.138 100.55 252.638 104.728 252.733 108.976M252.733 108.976C253.507 108.823 254.281 108.67 255.054 108.515C258.876 107.75 263.222 106.456 267.501 105.865M252.648 163.321C250.808 164.966 249.028 166.625 247.391 168.343C247.304 168.434 247.217 168.526 247.129 168.619M252.648 163.321C254.908 164.038 257.061 165.037 258.983 166.392M247.129 168.619C247.659 169.481 248.185 170.355 248.718 171.232M268.061 176.063C267.743 173.864 265.955 171.953 264.404 169.964C263.67 169.023 262.886 168.08 262.542 166.908C262.511 166.803 262.383 165.832 262.378 165.869C262.208 167.068 262.152 168.26 262.258 169.388M268.061 176.063C267.672 175.986 267.317 175.892 267.006 175.785C265.823 175.376 264.898 174.778 264.19 174.04M262.258 169.388C262.427 171.178 263.005 172.805 264.19 174.04M262.258 169.388C263.322 170.727 264.116 172.342 264.19 174.04M242.287 161.76C242.023 161.755 241.759 161.753 241.497 161.753C241.152 161.753 240.806 161.756 240.459 161.761M240.459 161.761C236.76 166.123 232.043 169.3 226.664 171.17C223.629 172.225 214.044 175.372 211.894 170.796C211.629 170.233 211.488 169.64 211.445 169.034" stroke="white" stroke-opacity="0.2" stroke-linecap="round"/>
<path d="M364.109 309.252C361.352 306.439 359.586 302.486 358.134 298.886C356.942 295.932 356.082 292.816 355.333 289.723C353.229 281.033 358.781 273.509 364.393 267.379C373.055 257.918 383.644 250.895 393.322 242.637C396.5 239.925 399.062 236.577 401.011 232.883C403.657 227.869 404.379 220.71 400.472 216.054C396.411 211.215 387.569 212.779 382.62 214.869C375.11 218.041 368.308 224.405 363.295 230.759C356.844 238.936 348.812 257.347 364.407 260.848C380.532 264.469 397.392 252.215 408.674 242.322C417.365 234.7 426.443 229.694 437.4 225.748C443.525 223.541 448.907 221.989 455.207 220.907C457.993 220.428 460.709 220.781 463.47 220.342C470.503 219.223 477.225 214.241 481.197 208.397C484.414 203.665 485.431 198.38 484.08 192.809C482.709 187.155 478.674 182.792 475.182 178.309C468.068 169.172 451.85 152.05 440.317 164.493C435.554 169.632 436.007 176.455 443.434 178.622C450.849 180.786 459.899 177.651 465.101 172.136C471.066 165.811 470.072 157.814 466.215 150.648C461.145 141.23 450.08 135.304 440.255 132.277C436.269 131.05 432.012 130.097 427.819 130.216C422.021 130.381 416.194 132.438 410.896 134.639C401.511 138.537 393.483 145.303 388.445 154.195C383.623 162.706 381.924 172.325 375.943 180.281C371.179 186.619 364.369 191.448 356.168 189.134C348.428 186.951 345.179 179.396 348.508 172C351.501 165.351 359.715 164.057 366.119 165.424C384.213 169.286 393.142 186.736 402.269 200.949C404.199 203.953 406.268 206.791 408.901 209.225C411.984 212.074 419.203 216.319 422.079 210.231C424.397 205.326 421.923 200.131 419.633 195.871C416.938 190.857 413.356 186.257 408.42 183.303C402.959 180.034 395.334 184.259 390.484 186.859C381.325 191.769 372.483 198.485 365.907 206.592C358.785 215.372 352.211 224.92 346.235 234.517C341.713 241.777 337.61 249.778 330.382 254.744C323.552 259.436 316.17 260.332 309.141 255.366C299.117 248.285 292.916 233.72 292.538 221.738C292.185 210.538 296.645 197.494 306.978 192.03C312.085 189.329 322.395 185.346 327.622 190.011C332.959 194.774 330.154 203.271 326.394 208.123C320.522 215.701 309.811 215.407 303.888 207.948C295.791 197.75 297.985 181.371 302.467 170.172C304.347 165.476 307.016 160.912 310.772 157.474C315.199 153.421 321.104 150.924 326.635 148.812C334.34 145.871 343.236 142.465 351.632 142.757C357.18 142.95 360.684 146.543 359.84 152.307C358.821 159.266 350.702 162.887 344.35 161.715C334.284 159.856 333.235 149.874 335.043 141.517C337.341 130.899 345.217 125.288 354.736 121.398C363.902 117.652 373.553 115.395 383.494 116.014C389.656 116.398 411.639 118.709 402.878 129.347C399.719 133.183 387.448 143.16 383.011 135.578C380.227 130.82 382.272 122.589 384.569 118.121C389.866 107.815 402.83 103.648 413.481 101.959C424.142 100.269 434.702 101.957 444.784 105.637C452.285 108.375 459.539 111.576 463.501 118.885C466.421 124.272 465.932 131.135 460.775 135.079C455.322 139.25 445.629 139.867 442.203 132.801C438.537 125.24 443.807 115.271 450.949 112.029C460.665 107.619 473.051 108.01 482.981 111.624C492.848 115.214 499.911 122.548 504.154 132.045C507.062 138.552 509.91 146.783 505.105 153.087C501.708 157.545 496.526 162.309 490.642 162.595C488.514 162.699 481.649 162.343 482.422 158.576C483.71 152.3 491.857 147.061 497.462 145.402C501.221 144.289 505.577 143.556 509.397 144.868C513.994 146.448 517.177 151.295 519.357 155.347C523.871 163.737 523.637 175.022 520.065 183.743C517.952 188.899 514.595 193.746 509.619 196.452C507.158 197.791 505.191 198.413 502.441 198.95C499.189 199.584 496.559 199.101 493.358 199.045" stroke="white" stroke-width="1.5" stroke-linecap="round"/>
</svg>
