<svg width="455" height="310" viewBox="0 0 455 310" fill="none" xmlns="http://www.w3.org/2000/svg">
<g clip-path="url(#clip0_328_237)">
<path d="M454.655 44.6431L46.9183 170.799L-0.121377 236.168L454.655 44.6431Z" fill="#407BFF"/>
<path opacity="0.6" d="M454.655 44.6431L46.9183 170.799L-0.121377 236.168L454.655 44.6431Z" fill="white"/>
<path d="M454.655 44.6431L46.9183 170.799L79.2234 249.436L454.655 44.6431Z" fill="#407BFF"/>
<path opacity="0.2" d="M454.655 44.6431L46.9183 170.799L79.2234 249.436L454.655 44.6431Z" fill="black"/>
<path d="M50.3535 11.7159L44.112 129.029C43.9514 132.092 45.0124 135.094 47.0621 137.375C49.1118 139.657 51.9828 141.033 55.0454 141.2L278.471 153.093C281.533 153.249 284.532 152.186 286.812 150.137C289.093 148.089 290.47 145.221 290.642 142.16L296.902 24.8436C297.057 21.7794 295.991 18.7787 293.939 16.4982C291.886 14.2177 289.014 12.8432 285.95 12.6755L62.5245 0.782389C59.4603 0.627671 56.4595 1.69317 54.1791 3.7457C51.8986 5.79823 50.5241 8.6706 50.3564 11.7342L50.3535 11.7159Z" fill="#407BFF"/>
<path opacity="0.4" d="M50.3535 11.7159L44.112 129.029C43.9514 132.092 45.0124 135.094 47.0621 137.375C49.1118 139.657 51.9828 141.033 55.0454 141.2L278.471 153.093C281.533 153.249 284.532 152.186 286.812 150.137C289.093 148.089 290.47 145.221 290.642 142.16L296.902 24.8436C297.057 21.7794 295.991 18.7787 293.939 16.4982C291.886 14.2177 289.014 12.8432 285.95 12.6755L62.5245 0.782389C59.4603 0.627671 56.4595 1.69317 54.1791 3.7457C51.8986 5.79823 50.5241 8.6706 50.3564 11.7342L50.3535 11.7159Z" fill="black"/>
<path d="M54.4999 3.44162L140.744 80.6464C148.742 87.8041 158.944 92.0169 169.662 92.5882C180.38 93.1594 190.972 90.0547 199.685 83.7878L293.651 16.1837C291.624 14.0723 288.868 12.8116 285.945 12.6576L62.5188 0.764395C59.6035 0.610831 56.7382 1.56743 54.4999 3.44162Z" fill="#407BFF"/>
<path d="M454.655 44.6431L123.461 180.947L79.2234 249.436L454.655 44.6431Z" fill="#407BFF"/>
<path opacity="0.6" d="M454.655 44.6431L123.461 180.947L79.2234 249.436L454.655 44.6431Z" fill="white"/>
<path d="M341.603 143.367L342.778 144.799L308.033 173.298L306.858 171.866L341.603 143.367Z" fill="#407BFF"/>
<path d="M291.518 184.434L292.693 185.866L280.2 196.114L279.024 194.682L291.518 184.434Z" fill="#407BFF"/>
<path d="M454.655 44.6431L123.461 180.947L203.128 250.975L454.655 44.6431Z" fill="#407BFF"/>
<path d="M24.689 309.181C25.1528 309.109 25.5986 308.949 26.0028 308.711L78.5328 277.651C79.3722 277.148 79.9785 276.333 80.2194 275.384C80.4603 274.436 80.3162 273.431 79.8185 272.588C79.3209 271.745 78.5101 271.133 77.5631 270.886C76.6161 270.639 75.6099 270.777 74.7639 271.269L22.2155 302.331C21.4721 302.77 20.9053 303.455 20.6129 304.267C20.3206 305.08 20.321 305.969 20.6142 306.781C20.9075 307.593 21.475 308.277 22.219 308.716C22.9629 309.154 23.8365 309.319 24.689 309.181Z" fill="#407BFF"/>
<path opacity="0.3" d="M24.689 309.181C25.1528 309.109 25.5986 308.949 26.0028 308.711L78.5328 277.651C79.3722 277.148 79.9785 276.333 80.2194 275.384C80.4603 274.436 80.3162 273.431 79.8185 272.588C79.3209 271.745 78.5101 271.133 77.5631 270.886C76.6161 270.639 75.6099 270.777 74.7639 271.269L22.2155 302.331C21.4721 302.77 20.9053 303.455 20.6129 304.267C20.3206 305.08 20.321 305.969 20.6142 306.781C20.9075 307.593 21.475 308.277 22.219 308.716C22.9629 309.154 23.8365 309.319 24.689 309.181Z" fill="black"/>
<path d="M22.9113 276.517C23.3699 276.441 23.8091 276.276 24.2039 276.031L52.4134 259.274C52.8359 259.028 53.2056 258.701 53.5013 258.312C53.7969 257.923 54.0127 257.479 54.1362 257.006C54.2596 256.533 54.2882 256.04 54.2205 255.556C54.1527 255.072 53.9899 254.606 53.7414 254.185C53.4928 253.765 53.1635 253.397 52.7724 253.104C52.3812 252.811 51.936 252.598 51.4623 252.478C50.9885 252.357 50.4957 252.332 50.0121 252.403C49.5285 252.474 49.0637 252.64 48.6445 252.891L20.4263 269.593C19.5802 270.091 18.9664 270.905 18.7194 271.855C18.4724 272.805 18.6124 273.814 19.1089 274.661C19.4776 275.322 20.0396 275.853 20.7193 276.185C21.399 276.517 22.1639 276.633 22.9113 276.517Z" fill="#407BFF"/>
<path opacity="0.5" d="M22.9113 276.517C23.3699 276.441 23.8091 276.276 24.2039 276.031L52.4134 259.274C52.8359 259.028 53.2056 258.701 53.5013 258.312C53.7969 257.923 54.0127 257.479 54.1362 257.006C54.2596 256.533 54.2882 256.04 54.2205 255.556C54.1527 255.072 53.9899 254.606 53.7414 254.185C53.4928 253.765 53.1635 253.397 52.7724 253.104C52.3812 252.811 51.936 252.598 51.4623 252.478C50.9885 252.357 50.4957 252.332 50.0121 252.403C49.5285 252.474 49.0637 252.64 48.6445 252.891L20.4263 269.593C19.5802 270.091 18.9664 270.905 18.7194 271.855C18.4724 272.805 18.6124 273.814 19.1089 274.661C19.4776 275.322 20.0396 275.853 20.7193 276.185C21.399 276.517 22.1639 276.633 22.9113 276.517Z" fill="white"/>
<path d="M90.8708 298.212C91.327 298.134 91.7658 297.975 92.1664 297.744L143.399 267.377C143.822 267.132 144.191 266.805 144.487 266.416C144.783 266.026 144.998 265.583 145.122 265.11C145.245 264.637 145.274 264.144 145.206 263.66C145.138 263.176 144.976 262.71 144.727 262.289C144.478 261.868 144.149 261.501 143.758 261.208C143.367 260.915 142.922 260.702 142.448 260.582C141.974 260.461 141.481 260.436 140.998 260.507C140.514 260.578 140.049 260.744 139.63 260.995L88.3858 291.288C87.6424 291.727 87.0755 292.412 86.7832 293.224C86.4908 294.037 86.4913 294.926 86.7845 295.738C87.0778 296.55 87.6453 297.234 88.3892 297.672C89.1331 298.111 90.0068 298.275 90.8592 298.138L90.8708 298.212Z" fill="#407BFF"/>
<path opacity="0.3" d="M90.8708 298.212C91.327 298.134 91.7658 297.975 92.1664 297.744L143.399 267.377C143.822 267.132 144.191 266.805 144.487 266.416C144.783 266.026 144.998 265.583 145.122 265.11C145.245 264.637 145.274 264.144 145.206 263.66C145.138 263.176 144.976 262.71 144.727 262.289C144.478 261.868 144.149 261.501 143.758 261.208C143.367 260.915 142.922 260.702 142.448 260.582C141.974 260.461 141.481 260.436 140.998 260.507C140.514 260.578 140.049 260.744 139.63 260.995L88.3858 291.288C87.6424 291.727 87.0755 292.412 86.7832 293.224C86.4908 294.037 86.4913 294.926 86.7845 295.738C87.0778 296.55 87.6453 297.234 88.3892 297.672C89.1331 298.111 90.0068 298.275 90.8592 298.138L90.8708 298.212Z" fill="black"/>
</g>
<defs>
<clipPath id="clip0_328_237">
<rect width="455" height="310" fill="white"/>
</clipPath>
</defs>
</svg>
