<svg width="667" height="546" viewBox="0 0 667 546" fill="none" xmlns="http://www.w3.org/2000/svg">
<path fill-rule="evenodd" clip-rule="evenodd" d="M318.911 124.073C312.004 128.194 297.213 146.689 290.661 159.467C286.21 168.149 282.266 178.952 279.535 190.057C277.714 197.628 277.714 229.833 279.636 238.01C286.008 266.378 294.807 281.925 323.127 315.644C330.207 324.024 337.792 333.614 340.119 336.946C354.784 358.651 360.954 383.89 358.83 413.672C358.589 417.007 358.469 419.335 358.065 421.611C356.941 427.947 353.622 433.894 339.411 460.111C318.677 498.474 308.057 520.179 301.483 537.745C300.067 541.581 299.055 544.913 299.258 545.115C299.46 545.317 357.11 545.317 427.303 545.216L455.307 545.149L454.783 536.693C453.44 516.501 442.789 483.265 428.556 454.942C418.352 434.661 388.903 393.74 371.806 376.05C360.259 364.167 358.111 361.04 353.457 348.889C351.667 344.243 348.623 337.363 346.743 333.7C344.864 329.947 342.447 323.693 341.462 319.673C337.524 304.127 332.153 267.852 332.869 262.045C333.854 255.076 336.092 180.83 335.555 175.469C334.838 168.589 332.153 155.455 330.094 149.112C328.617 144.623 323.311 132.906 318.911 124.073Z" fill="#042340" fill-opacity="0.5"/>
<path fill-rule="evenodd" clip-rule="evenodd" d="M143.106 68.254C155.369 62.5359 179.716 55.4777 192.337 53.8694C195.291 53.512 203.616 53.3333 210.776 53.512C221.16 53.78 225.904 54.4055 232.975 56.1924C253.384 61.2851 270.301 70.2196 287.308 84.783C296.617 92.7347 309.507 107.388 314.43 115.607C315.592 117.574 317.182 120.601 318.911 124.073C312.004 128.194 297.213 146.689 290.661 159.467C286.21 168.15 282.266 178.952 279.535 190.057C277.714 197.628 277.714 229.833 279.636 238.01C286.008 266.379 294.807 281.926 323.127 315.645C330.207 324.024 337.792 333.615 340.119 336.946C354.784 358.651 360.954 383.89 358.83 413.672C358.589 417.008 358.469 419.335 358.065 421.611C356.941 427.948 353.622 433.894 339.411 460.111C318.677 498.474 308.057 520.179 301.483 537.745C300.067 541.581 299.055 544.913 299.258 545.115C299.46 545.317 357.11 545.317 427.303 545.216L455.307 545.149L455.32 545.36H317.294H179.179L179.806 542.858C181.417 535.174 195.828 504.976 206.122 487.464C209.613 481.388 218.206 462.805 220.533 456.014C228.321 433.588 225.814 411.967 213.641 395.527C201.557 379.266 194.486 372.923 188.399 372.923C185.087 372.923 182.939 373.995 174.614 379.534C167.99 383.912 163.515 385.61 153.132 387.218C145.792 388.469 136.661 387.397 131.738 384.895C127.621 382.751 124.13 375.514 123.324 367.651C122.25 356.215 119.744 352.552 112.136 351.39C106.854 350.586 105.064 349.157 102.826 344.421C101.394 341.205 101.394 340.758 102.737 338.167C103.543 336.648 104.617 335.398 105.064 335.398C105.601 335.398 105.959 334.772 105.959 334.057C105.959 333.075 105.333 332.807 103.722 333.253C102.468 333.521 100.32 333.343 98.8879 332.717C95.0391 331.198 94.0544 328.161 94.7704 319.762C95.576 309.934 84.1187 309.487 84.1187 309.487C84.1187 309.487 72.6967 310.13 68.3532 305.505C64.1782 301.06 66.4396 296.29 68.9679 290.957C70.315 288.115 71.7379 285.114 72.3033 281.917C72.753 279.373 73.2987 277.333 73.8163 275.397C74.7308 271.978 75.558 268.884 75.6152 263.921C75.6152 263.921 76.2587 258.608 75.7942 255.255C75.3094 251.755 74.0502 249.484 72.658 246.973C71.8568 245.529 71.0115 244.004 70.2445 242.121C69.3473 239.918 68.5218 237.983 67.747 236.168C65.6254 231.198 63.8849 227.12 62.099 220.856C58.5861 208.535 57.3664 201.233 57.1759 188.424C56.7477 159.629 63.4417 140.803 78.569 117.841C82.8655 111.319 101.752 92.3774 108.913 87.4634C121.176 79.0649 127.621 75.4017 143.106 68.254Z" fill="#042340"/>
<path fill-rule="evenodd" clip-rule="evenodd" d="M455.307 545.15L454.783 536.694C453.44 516.501 442.789 483.265 428.556 454.942C418.352 434.661 388.903 393.74 371.806 376.05C360.26 364.167 358.111 361.04 353.457 348.889C351.667 344.243 348.623 337.363 346.743 333.7C344.864 329.948 342.447 323.694 341.462 319.673C337.524 304.127 332.153 267.852 332.869 262.045C333.854 255.076 336.092 180.83 335.555 175.469C334.838 168.589 332.153 155.456 330.094 149.112C328.617 144.623 323.311 132.906 318.911 124.073C318.934 124.06 318.957 124.046 318.98 124.033C320.093 123.427 324.543 120.297 328.892 117.067C337.792 110.605 359.133 99.8033 370.765 95.8661C384.52 91.2222 397.163 88.4964 413.244 86.6793C418.908 85.9726 442.474 86.982 449.352 88.0925C473.625 92.1308 497.09 103.942 513.374 120.499C520.757 127.97 533.805 145.233 542.402 158.963C547.762 167.443 549.886 173.803 553.325 191.067C554.646 198.039 556.232 205.627 556.849 208.578L556.966 209.137C558.787 217.214 566.878 227.309 581.543 239.929C595.804 252.245 595.501 261.634 580.532 269.71C574.362 272.941 573.553 276.474 577.498 281.926C578.083 282.718 578.754 283.648 579.411 284.56C580.346 285.855 581.253 287.112 581.847 287.882C582.757 289.195 583.566 291.819 583.566 293.839C583.566 298.079 580.633 300.804 574.969 301.713C569.609 302.622 570.013 303.732 575.981 304.54C581.645 305.246 583.667 307.165 584.578 312.515C585.286 316.25 585.083 316.654 580.229 321.096C573.25 327.557 572.946 329.778 577.093 342.903C581.038 355.32 580.734 358.853 575.576 364.608C571.025 369.555 563.844 373.391 554.134 375.915C547.459 377.631 544.526 377.833 534.917 377.227C517.925 376.218 517.217 377.025 510.239 404.182C506.294 419.224 505.991 421.849 505.991 432.853C506.092 446.381 507.811 456.477 512.363 468.692C517.521 482.624 521.162 489.186 546.751 531.284L554.943 544.913L455.307 545.15Z" fill="#042340"/>
</svg>
